<?xml version="1.0" encoding="utf-8"?>
<!-- Generator: Adobe Illustrator 18.1.1, SVG Export Plug-In . SVG Version: 6.00 Build 0)  -->
<svg version="1.1" id="rc-background" xmlns="http://www.w3.org/2000/svg" xmlns:xlink="http://www.w3.org/1999/xlink" x="0px" y="0px"
	 viewBox="0 0 1900 1080" enable-background="new 0 0 1900 1080" xml:space="preserve">
<rect x="396.3" y="885.6" transform="matrix(0.7071 0.7071 -0.7071 0.7071 1113.7322 82.2861)" class="svg-color-1" width="122.4" height="999.8"/>
<rect x="576.7" y="359" transform="matrix(0.7071 0.7071 -0.7071 0.7071 794.1848 -199.4781)" class="svg-color-1" width="122.4" height="999.8"/>
<rect x="836.4" y="618.7" transform="matrix(0.7071 0.7071 -0.7071 0.7071 1053.8829 -307.0485)" class="svg-color-2" width="122.4" height="999.8"/>
<rect x="922.9" y="705.3" transform="matrix(0.7071 0.7071 -0.7071 0.7071 1140.4489 -342.9053)" class="svg-color-1" width="122.4" height="999.8"/>
<rect x="1182.6" y="965" transform="matrix(0.7071 0.7071 -0.7071 0.7071 1400.1469 -450.4757)" class="svg-color-2" width="122.4" height="999.8"/>
<rect x="309.8" y="799.1" transform="matrix(0.7071 0.7071 -0.7071 0.7071 1027.1661 118.1429)" class="svg-color-highlight" width="122.4" height="999.8"/>
<rect x="1629.9" y="-1.7" transform="matrix(0.7071 0.7071 -0.7071 0.7071 847.6182 -1049.861)" class="svg-color-1" width="122.4" height="999.8"/>
<rect x="1810.2" y="-528.3" transform="matrix(0.7071 0.7071 -0.7071 0.7071 528.0709 -1331.6252)" class="svg-color-1" width="122.4" height="999.8"/>
<rect x="2069.9" y="-268.6" transform="matrix(0.7071 0.7071 -0.7071 0.7071 787.7689 -1439.1957)" class="svg-color-2" width="122.4" height="999.8"/>
<rect x="1103.3" y="178.7" transform="matrix(0.7071 0.7071 -0.7071 0.7071 820.9016 -624.6696)" class="svg-color-2" width="122.4" height="999.8"/>
<rect x="2156.5" y="-182" transform="matrix(0.7071 0.7071 -0.7071 0.7071 874.3349 -1475.0524)" class="svg-color-1" width="122.4" height="999.8"/>
<rect x="1449.5" y="525" transform="matrix(0.7071 0.7071 -0.7071 0.7071 1167.1655 -768.0968)" class="svg-color-2" width="122.4" height="999.8"/>
<rect x="1363" y="438.4" transform="matrix(0.7071 0.7071 -0.7071 0.7071 1080.5996 -732.2401)" class="svg-color-highlight" width="122.4" height="999.8"/>
<rect x="1709.2" y="784.6" transform="matrix(0.7071 0.7071 -0.7071 0.7071 1426.8635 -875.6672)" class="svg-color-highlight" width="122.4" height="999.8"/>
<rect x="1543.3" y="-88.2" transform="matrix(0.7071 0.7071 -0.7071 0.7071 761.0522 -1014.0042)" class="svg-color-highlight" width="122.4" height="999.8"/>
<rect x="1976.2" y="344.6" transform="matrix(0.7071 0.7071 -0.7071 0.7071 1193.8822 -1193.2883)" class="svg-color-1" width="122.4" height="999.8"/>
<rect x="1889.6" y="258" transform="matrix(0.7071 0.7071 -0.7071 0.7071 1107.3162 -1157.4314)" class="svg-color-highlight" width="122.4" height="999.8"/>
<rect x="1197.1" y="-434.5" transform="matrix(-0.7071 -0.7071 0.7071 -0.7071 2101.7585 1001.3873)" class="svg-color-1" width="122.4" height="999.8"/>
<rect x="1016.7" y="92.1" transform="matrix(-0.7071 -0.7071 0.7071 -0.7071 1421.5197 1772.8428)" class="svg-color-1" width="122.4" height="999.8"/>
<rect x="757" y="-167.6" transform="matrix(-0.7071 -0.7071 0.7071 -0.7071 1161.8217 1145.8763)" class="svg-color-2" width="122.4" height="999.8"/>
<rect x="1723.7" y="-614.8" transform="matrix(-0.7071 -0.7071 0.7071 -0.7071 3128.2617 1065.8872)" class="svg-color-2" width="122.4" height="999.8"/>
<rect x="670.5" y="-254.1" transform="matrix(-0.7071 -0.7071 0.7071 -0.7071 1075.2557 936.8876)" class="svg-color-1" width="122.4" height="999.8"/>
<rect x="1464" y="-874.5" transform="matrix(-0.7071 -0.7071 0.7071 -0.7071 2868.5637 438.9207)" class="svg-color-highlight" width="122.4" height="999.8"/>
<rect x="410.8" y="-513.8" transform="matrix(-0.7071 -0.7071 0.7071 -0.7071 815.5577 309.9211)" class="svg-color-2" width="122.4" height="999.8"/>
<rect x="1283.6" y="-347.9" transform="matrix(-0.7071 -0.7071 0.7071 -0.7071 2188.3247 1210.3762)" class="svg-color-highlight" width="122.4" height="999.8"/>
<rect x="850.8" y="-780.8" transform="matrix(-0.7071 -0.7071 0.7071 -0.7071 1755.4948 165.4321)" class="svg-color-1" width="122.4" height="999.8"/>
<rect x="937.4" y="-694.2" transform="matrix(-0.7071 -0.7071 0.7071 -0.7071 1842.0607 374.4209)" class="svg-color-highlight" width="122.4" height="999.8"/>
<rect x="324.2" y="-600.4" transform="matrix(-0.7071 -0.7071 0.7071 -0.7071 728.9917 100.9323)" class="svg-color-1" width="122.4" height="999.8"/>
<rect x="396.3" y="885.6" transform="matrix(0.7071 0.7071 -0.7071 0.7071 1113.7322 82.2861)" class="svg-color-1" width="122.4" height="999.8"/>
<rect x="309.8" y="799.1" transform="matrix(0.7071 0.7071 -0.7071 0.7071 1027.1661 118.1429)" class="svg-color-highlight" width="122.4" height="999.8"/>
<rect x="-36.5" y="452.8" transform="matrix(-0.7071 -0.7071 0.7071 -0.7071 -631.4861 1643.8431)" class="svg-color-1" width="122.4" height="999.8"/>
<rect x="490.1" y="272.5" transform="matrix(-0.7071 -0.7071 0.7071 -0.7071 395.0168 1708.343)" class="svg-color-2" width="122.4" height="999.8"/>
<rect x="143.8" y="-73.8" transform="matrix(-0.7071 -0.7071 0.7071 -0.7071 48.7528 872.3878)" class="svg-color-2" width="122.4" height="999.8"/>
<rect x="230.4" y="12.8" transform="matrix(-0.7071 -0.7071 0.7071 -0.7071 135.3188 1081.3766)" class="svg-color-highlight" width="122.4" height="999.8"/>
<rect x="-115.9" y="-333.5" transform="matrix(-0.7071 -0.7071 0.7071 -0.7071 -210.9452 245.4214)" class="svg-color-highlight" width="122.4" height="999.8"/>
<rect x="50.1" y="539.4" transform="matrix(-0.7071 -0.7071 0.7071 -0.7071 -544.9202 1852.832)" class="svg-color-highlight" width="122.4" height="999.8"/>
<rect x="-382.8" y="106.5" transform="matrix(-0.7071 -0.7071 0.7071 -0.7071 -977.7502 807.888)" class="svg-color-1" width="122.4" height="999.8"/>
<rect x="-296.2" y="193.1" transform="matrix(-0.7071 -0.7071 0.7071 -0.7071 -891.1841 1016.8768)" class="svg-color-highlight" width="122.4" height="999.8"/>
<rect x="-202.4" y="-420.1" transform="matrix(-0.7071 -0.7071 0.7071 -0.7071 -297.5112 36.4326)" class="svg-color-2" width="122.4" height="999.8"/>
</svg>
