<?xml version="1.0" encoding="utf-8"?>
<!-- Generator: Adobe Illustrator 18.1.1, SVG Export Plug-In . SVG Version: 6.00 Build 0)  -->
<svg version="1.1" id="Layer_1" xmlns="http://www.w3.org/2000/svg" xmlns:xlink="http://www.w3.org/1999/xlink" x="0px" y="0px"
	 viewBox="0 0 1900 1080" enable-background="new 0 0 1900 1080" xml:space="preserve">
<rect class="svg-color-1" width="1900" height="1080"/>
<path fill="none" class="svg-stroke-3" stroke-miterlimit="10" d="M733.5-59c0.5,28.5-19.4,52.8-39.3,73.2c-29.3,30-60.9,57.8-94.4,82.9
	c-12.8,9.6-26.3,19.3-34.4,33.1c-6.1,10.5-8.6,22.7-10.6,34.8c-10.1,59.4-11.8,122.1-40,175.4c-22.6,42.7-60.9,76.3-79.6,120.9
	c-25.6,61.1-9.8,131.6,15,193c32,79.3,78.7,152.7,136.9,215.4c8.2,8.9,16.8,17.6,23,28c21.7,36.3,10.3,82.6-4.1,122.3
	c-14.4,39.7-31.7,82.2-19.9,122.8"/>
<path fill="none" class="svg-stroke-2" stroke-miterlimit="10" d="M796.3-46.9c-15.5,76.1-54.2,147.4-109.7,201.8
	c-14.3,14-29.7,27-42.3,42.5c-12.4,15.2-21.8,32.5-31.2,49.7c-25.7,47.1-51.4,94.3-77.1,141.4c-21.3,39.1-42.9,79.1-50.8,122.9
	c-9.2,51.4,2,106.2,30.7,149.9c11.3,17.2,25.1,32.7,37.3,49.2c18.1,24.5,32.8,51.4,47.4,78.2c36.4,66.8,73.9,138.7,67.5,214.5
	c-2.4,28.5-10.9,56-19.4,83.3c-8.2,26.4-16.5,52.8-24.7,79.2"/>
<path fill="none" class="svg-stroke-3" stroke-miterlimit="10" d="M1745.9-55.1c0,29-19.6,54.7-42.6,72.4c-23,17.8-49.7,30-72.9,47.5
	c-40.2,30.3-67.2,74.3-97.4,114.5c-35.8,47.7-77,91.3-122.8,129.6c-12.5,10.5-25.8,20.9-41.5,25.6c-22.2,6.7-46.1,1.4-69.2-0.4
	c-47.6-3.7-94.9,7.9-141.3,19.5c-28.7,7.1-58,14.6-82.6,31.1c-66.3,44.7-75,144.5-39.1,216c35.8,71.5,104.2,120.3,172,162.8
	c31.2,19.5,63.3,38.8,87.8,66.2c27.2,30.4,44.7,70.4,78.6,93c44.2,29.4,108.5,23.9,144.3,63.2c3.9,4.3,7.4,9.3,8,15.1
	c0.5,5.9-2.1,11.6-4.7,16.9c-29.2,61-50.4,125.8-63.2,192.3"/>
<path fill="none" class="svg-stroke-3" stroke-miterlimit="10" d="M1402.9,1148c-6.7-23.5,0.4-50.4,17.7-67.6
	c7.6-7.5,17.9-16.6,14.1-26.6c-2-5.1-7.1-8-11.9-10.6c-10.2-5.4-20.6-10.5-30.6-16.2c-56.9-32.5-100.4-83.6-144.7-131.9
	c-43.8-47.8-89.8-94.1-142.5-131.9c-41.8-30.1-90.1-57.6-110.3-105c-6.9-16.3-10-34-14.9-51c-8.5-29.6-22.5-57.8-26.3-88.3
	c-5.7-45.4,12.8-92.1,44.1-125.5c31.3-33.4,74.3-54.4,119-64.5c40.4-9.2,82.9-10.1,121.9-24.2c24.1-8.8,46.6-22.5,71.7-27.9
	c13-2.7,26.4-3.2,39.3-6.5c16.2-4.2,30.8-13,44.8-22.2c58.6-38.5,110.8-86.6,153.8-141.9c27.5-35.3,51.9-74.1,87.6-100.9
	c23.9-17.9,55.9-36.6,53.7-66.4"/>
<path fill="none" class="svg-stroke-2" stroke-miterlimit="10" d="M1014.6,1132.3c-14.6-69-64.1-124.5-109.6-178.4
	c-45.5-53.9-90.8-114.7-94.1-185.2c-1.5-31.7,5.7-63.8-0.5-94.9c-5.8-28.8-22.5-54-36.1-80c-32.3-61.5-47.6-138.1-15.3-199.5
	c14-26.7,35.9-48.4,59.4-67.3c90.5-72.9,208.1-109.8,289-193.2C1162,77.3,1195.5,4,1242.7-58.9"/>
<path fill="none" class="svg-stroke-2" stroke-miterlimit="10" d="M159.6,1148.6c-0.1-43.6-0.6-88.7-18.4-128.5
	c-6.5-14.5-15.2-28-21.1-42.7c-9.8-24.2-12-50.7-13-76.8c-4.9-127.4,15.7-255.8,60.1-375.3c11.4-30.6,24.3-60.7,37.2-90.7
	c17.4-40.6,35.4-81.9,64.9-114.8c18.2-20.3,40.8-37.3,53.9-61.3c7.6-13.9,11.7-29.5,20-43c12.3-19.9,32.7-33.2,47.5-51.4
	c17.5-21.6,26.4-49.2,43.6-71c23.4-29.6,59.4-45.6,92.7-63.2s67.4-40.6,80.1-76.1"/>
<path fill="none" class="svg-stroke-2" stroke-miterlimit="10" d="M14.7,1129.5c13.6-38.5,27.2-77,40.8-115.5
	c6.9-19.5,13.9-39.5,14.1-60.2c0.2-22.1-7.3-43.5-12.9-64.9C23.2,759.7,62,623.9,100.6,496c14.5-48.2,29.5-97.2,57.6-138.8
	c35.4-52.3,90.3-90.8,118.2-147.5c26.1-53,30.6-123.3,81.5-153.4c13.4-7.9,28.8-11.9,43.1-18.1c32.8-14,60.4-39.8,76.7-71.5"/>
<path fill="none" class="svg-stroke-2" stroke-miterlimit="10" d="M-58.7,572.6c1.7-11.4,7.4-21.7,13-31.8
	c25.5-46.2,51.1-92.3,76.6-138.5c7.2-12.9,14.3-25.9,23.6-37.5c10.9-13.6,24.3-24.9,37-36.8c23.7-22.3,45-47.2,63.4-74
	c11.8-17.2,22.5-35.4,29.5-55c4.4-12.4,7.4-25.3,12.3-37.5c8-19.9,20.9-37.4,33.6-54.6c13.6-18.5,27.7-37.3,46.6-50.2
	c17.7-12,38.8-18.2,56.6-30.1c32.2-21.4,50.3-58.6,78.9-84.7"/>
<path fill="none" class="svg-stroke-2" stroke-miterlimit="10" d="M-71.6,312.6c46.4-35,89.6-74.3,128.6-117.3c3.9-4.3,7.8-8.7,9.9-14
	c4.8-12.4-0.9-26.4,1.2-39.5c2.6-15.9,16.2-27.4,28.8-37.4c15.9-12.6,31.9-25.3,49.4-35.5c16.9-9.9,35.1-17.5,52.3-26.8
	c41.3-22.2,77.3-53.9,104.5-92.1"/>
<path fill="none" class="svg-stroke-2" stroke-miterlimit="10" d="M-51.1,184.7c17.5-16.8,35.1-33.7,48-54.2
	c8.7-13.9,15.2-29.3,25.4-42.2c18-22.7,45.7-35,71.1-48.9c48.8-26.7,92.8-62,129.3-103.8"/>
<path fill="none" class="svg-stroke-2" stroke-miterlimit="10" d="M363.5,1181.8c24.7-38,42-80.7,50.7-125.1c3.7-18.7,5.8-38.3,1.1-56.8
	c-4.1-16.2-13-30.7-20.4-45.7c-25.7-52.6-31.8-113-57.2-165.8c-10.4-21.7-24-41.9-31.9-64.6c-10.4-30.1-10-62.8-7.9-94.6
	c5-75.1,21-154,72.1-209.1c14.1-15.2,30.6-28.3,42.5-45.3c11.6-16.6,18.1-36.1,24.5-55.3c7.4-22.3,14.8-44.5,22.2-66.8
	c4.9-14.6,9.7-29.4,11.6-44.7c1.5-12.8,0.9-25.8,3.4-38.4c8.9-45,52.6-72.5,86.5-103.3c30.1-27.4,54.6-61,71.6-98"/>
<path fill="none" class="svg-stroke-2" stroke-miterlimit="10" d="M1648.8,1130.7c16.5-32.6,32.8-72.5,14.1-103.9
	c-8-13.4-21.3-22.7-33.9-31.9c-63.2-46.3-119.8-101.8-167.3-164.2c-17.9-23.5-34.8-48.2-56.7-68c-26.7-24-60.1-39.9-85.9-65
	c-39.2-38.2-56.4-93-72.1-145.3c-5.1-17.1-10.4-34.9-7.6-52.6c5.3-34.1,37.5-56.5,67.4-73.7c74.9-43,155.1-80.2,216-141.4
	c16.9-16.9,32.1-35.6,50.1-51.4c26.1-22.9,57.3-39.1,88-55.2c93.5-49.1,186-99.9,277.7-152.4"/>
<path fill="none" class="svg-stroke-2" stroke-miterlimit="10" d="M1821.1,1138.7c-29.5-30.8-34.3-77.5-56.6-113.9
	c-15-24.5-37.5-43.4-57.6-63.9c-60.9-62.3-102.1-143.5-116.4-229.5c-1.7-10.3-3.1-20.9-8.2-30c-3.4-6.1-8.3-11.2-13.2-16.2
	c-18.4-18.7-38-36.4-59.9-50.9c-16.6-10.9-34.5-20-49.5-33c-14.9-13.1-26.9-31.4-26.3-51.3c0.8-28,25-49,47.2-66.1
	c27-20.9,54-41.8,81-62.6c5.8-4.5,11.7-9.1,16-15.1c5-7.1,7.3-15.6,10.1-23.8c23.9-69.9,91.5-122.7,165.2-128.9
	c18.9-1.6,38.2-0.3,56.8-3.9c54.5-10.5,94.5-59.6,148.3-73.3"/>
<path fill="none" class="svg-stroke-2" stroke-miterlimit="10" d="M1914.3,314.8c-32.7,4.4-64.2,14.9-95.5,25.4
	c-28.4,9.6-58,19.8-78.7,41.5c-11.9,12.4-20.1,27.7-28.2,42.9c-12.7,23.9-25.9,49.8-22.1,76.6c4.1,28.9,26.7,51.1,40.8,76.6
	c10.5,18.9,16.3,40,25.6,59.6c16.4,34.6,43.3,63.8,57,99.5c8.1,21.2,11.3,44,19.2,65.4c8.6,23.5,22.8,44.9,28.8,69.3
	c4.1,16.7,4,34.1,4,51.3c-0.1,49.3-0.2,98.5-0.3,147.8c0,19.9,2.1,43.7,19.6,53.3"/>
<path fill="none" class="svg-stroke-2" stroke-miterlimit="10" d="M1940.1,704.6c-53.9-37.6-91.5-100.1-92.3-165.9
	c-0.3-27.9,5.7-55.5,12.4-82.6c1.2-4.7,2.4-9.5,5.5-13.2c4.4-5.4,11.6-7.3,18.1-9.7c17.4-6.3,33.1-17.4,45-31.7"/>
</svg>
