<?xml version="1.0" encoding="utf-8"?>
<!-- Generator: Adobe Illustrator 19.1.0, SVG Export Plug-In . SVG Version: 6.00 Build 0)  -->
<svg version="1.1" id="Layer_1" xmlns="http://www.w3.org/2000/svg" xmlns:xlink="http://www.w3.org/1999/xlink" x="0px" y="0px"
	 viewBox="49 -137.5 349.5 418.5" enable-background="new 49 -137.5 349.5 418.5" xml:space="preserve">
<g>
	<path fill="#FFFFFF" d="M242.1,105c-2.5,1.3-6.1-0.6-8-4.4L123.6-121c-2-3.7-1.6-7.8,0.9-9.1l0,0c2.5-1.3,6.1,0.6,8,4.4L251.2,88.4
		c2,3.7-1.5,12.5-4,13.8L242.1,105z"/>
	<path fill="#FFFFFF" d="M233.3,78.2c-4.5,2.4-13.7,9.2-9.2,18s12.9,17.3,23.3,24.7c8.2,5.8,26.1,6.3,26.1,6.3s-7.3-2.7-12-13.1
		c-3.5-7.8-1.9-22.2-5.9-29.6C248.6,71.9,238.4,75.4,233.3,78.2z"/>
	<path fill="#50E3C2" d="M234.2,97.7c-1.9,0.4-6.6,4.2-6.6,4.2c4.8,6.8,11.7,13.3,19.8,19c8.2,5.8,26.1,6.3,26.1,6.3
		s-7.3-2.7-12-13.1c-1.6-3.5-2.1-8.3-2.6-13.2C258.9,100.9,240.3,96.3,234.2,97.7z"/>
	<path fill="#FFFFFF" d="M300.9,153.5l-82.4,37c-3.4,1.5-14.8-23.8-11.4-25.3l84.8-38.3L300.9,153.5z"/>
	<path fill="#FFFFFF" d="M299.2,197.8c0,0-74.2,35.8-122.2-41.7C129.3,79,205.3,30.2,205.3,30.2l4,13.3c0,0-53.7,43.3-18.8,97.1
		c43.2,66.6,103.3,41,103.3,41L299.2,197.8z"/>
	<g>
		<g>
			<path fill="#FFFFFF" d="M144.6-44.2c-54,28.6-90,85.4-90,150.6c0,94,76.5,170.5,170.5,170.5s170.6-76.4,170.6-170.5
				S319.2-64.1,225.2-64.1c-24.2,0-45.7,4-66.5,13.1c2.9,5.8,4.5,9,7.5,14.8c18.6-8,37.5-11.3,59.1-11.3
				c84.9,0,153.9,69.1,153.9,153.9s-69.1,153.9-153.9,153.9c-84.9,0-153.9-69.1-153.9-153.9c0-59.2,32.7-110.6,81.8-136.3"/>
		</g>
	</g>
	<path fill="#FFFFFF" d="M225.2,219.9c107.8,0,126.8-26.2,126.8-26.2s-46,75-126.8,75c-85.6,0-126.6-74.8-126.6-74.8
		S117.6,219.9,225.2,219.9z"/>
	<path fill="#FFFFFF" d="M243,102.3l-6.7,0.5c0,0,1.6,4,4.2,6.8c1.7,1.8,7.6,3.5,7.6,3.5s-3.8-3-4.7-5.4
		C242.7,105.3,243,102.3,243,102.3z"/>
</g>
<path fill="#FFFFFF" d="M276.2,194.5c-19.8,0.8-38-2.5-81.8-16.8c-7.8,22-21.8,43.5-21.8,43.5h114.3
	C286.9,221.3,280.9,212,276.2,194.5z"/>
</svg>
