<?xml version="1.0" encoding="utf-8"?>
<!-- Generator: Adobe Illustrator 19.1.0, SVG Export Plug-In . SVG Version: 6.00 Build 0)  -->
<svg version="1.1" id="Layer_1" xmlns="http://www.w3.org/2000/svg" xmlns:xlink="http://www.w3.org/1999/xlink" x="0px" y="0px"
	 viewBox="0 0 1235.9 420" enable-background="new 0 0 1235.9 420" xml:space="preserve">
<g>
	<path fill="#FFFFFF" d="M193.1,245.5c-2.5,1.3-6.1-0.6-8-4.4L74.6,19.5c-2-3.7-1.6-7.8,0.9-9.1l0,0c2.5-1.3,6.1,0.6,8,4.4
		l118.7,214.1c2,3.7-1.5,12.5-4,13.8L193.1,245.5z"/>
	<path fill="#FFFFFF" d="M184.3,218.7c-4.5,2.4-13.7,9.2-9.2,18c4.5,8.8,12.9,17.3,23.3,24.7c8.2,5.8,26.1,6.3,26.1,6.3
		s-7.3-2.7-12-13.1c-3.5-7.8-1.9-22.2-5.9-29.6C199.6,212.4,189.4,215.9,184.3,218.7z"/>
	<path fill="#6EC7B4" d="M185.2,238.2c-1.9,0.4-6.6,4.2-6.6,4.2c4.8,6.8,11.7,13.3,19.8,19c8.2,5.8,26.1,6.3,26.1,6.3
		s-7.3-2.7-12-13.1c-1.6-3.5-2.1-8.3-2.6-13.2C209.9,241.4,191.3,236.8,185.2,238.2z"/>
	<path fill="#FFFFFF" d="M251.9,294l-82.4,37c-3.4,1.5-14.8-23.8-11.4-25.3l84.8-38.3L251.9,294z"/>
	<path fill="#FFFFFF" d="M250.2,338.3c0,0-74.2,35.8-122.2-41.7c-47.7-77.1,28.3-125.9,28.3-125.9l4,13.3c0,0-53.7,43.3-18.8,97.1
		c43.2,66.6,103.3,41,103.3,41L250.2,338.3z"/>
	<g>
		<g>
			<path fill="#FFFFFF" d="M95.6,96.3C41.6,124.9,5.6,181.7,5.6,246.9c0,94,76.5,170.5,170.5,170.5S346.7,341,346.7,246.9
				S270.2,76.4,176.2,76.4c-24.2,0-45.7,4-66.5,13.1c2.9,5.8,4.5,9,7.5,14.8c18.6-8,37.5-11.3,59.1-11.3
				c84.9,0,153.9,69.1,153.9,153.9s-69.1,153.9-153.9,153.9c-84.9,0-153.9-69.1-153.9-153.9c0-59.2,32.7-110.6,81.8-136.3"/>
		</g>
	</g>
	<path fill="#FFFFFF" d="M176.2,360.4c107.8,0,126.8-26.2,126.8-26.2s-46,75-126.8,75c-85.6,0-126.6-74.8-126.6-74.8
		S68.6,360.4,176.2,360.4z"/>
	<path fill="#FFFFFF" d="M194,242.8l-6.7,0.5c0,0,1.6,4,4.2,6.8c1.7,1.8,7.6,3.5,7.6,3.5s-3.8-3-4.7-5.4
		C193.7,245.8,194,242.8,194,242.8z"/>
</g>
<g>
	<path fill="#FFFFFF" d="M481.6,279.6H457v-98.2c7.8-1.3,20.9-2.2,31.2-2.2c25.2,0,42.2,10.6,42.2,34.2c0,14.1-8,24.1-17.8,29.2
		l26.4,36.9H510L488.7,248h-7.1V279.6z M481.6,227.7h6.1c10.3,0,17.6-3.5,17.6-13.6c0-10-7.6-13.5-16.9-13.5c-2,0-5.5,0.2-6.8,0.3
		V227.7z"/>
	<path fill="#FFFFFF" d="M663.7,257.8v21.8h-66.4v-98.6h65.3v21.8h-40.9v16.9h37.2v21.3h-37.2v16.9H663.7z"/>
	<path fill="#FFFFFF" d="M746.4,260.8l-6.8,18.8h-26.1l38.4-98.6h29.7l38.4,98.6h-27.1l-6.6-18.8H746.4z M766.7,205.7l-12.8,35h25.2
		L766.7,205.7z"/>
	<path fill="#FFFFFF" d="M868.8,250c7.3,5.5,16.1,10.1,27.2,10.1c7.5,0,14-2.2,14-8.8c0-6-5.1-8.1-15.1-10.6
		c-20.4-5.1-28.1-14.4-28.1-30.9c0-19.4,14.8-30.6,34.2-30.6c11.8,0,19.9,2.8,27.2,7.1v24.2c-7.6-6.3-16.1-10.3-26.2-10.3
		c-7.5,0-11.1,3.3-11.1,8c0,6.3,5.6,8.3,16.1,11c20.3,5.3,27.2,14.8,27.2,31.2c0,21.4-17.1,30.7-38,30.7c-11,0-20.9-3-27.4-7V250z"
		/>
	<path fill="#FFFFFF" d="M1036.4,179.2c28.6,0,51.5,20.9,51.5,51c0,30.1-22.9,51-51.5,51c-28.6,0-51.3-20.9-51.3-51
		C985.1,200.2,1007.8,179.2,1036.4,179.2z M1036.4,201.5c-14.9,0-25.9,11.5-25.9,28.7s11,28.7,25.9,28.7c15.1,0,25.9-11.5,25.9-28.7
		S1051.5,201.5,1036.4,201.5z"/>
	<path fill="#FFFFFF" d="M1206.1,241.4v-60.5h23.9v98.6h-23.4l-41.2-59.3v59.3h-23.9v-98.6h24.9L1206.1,241.4z"/>
</g>
<g>
	<path fill="#FFFFFF" d="M475.6,308.5c-1.9-1.8-4.6-2.7-7.4-2.7c-6,0-10.9,4.4-10.9,11.2c0,6.9,4.9,11.2,10.9,11.2
		c2.8,0,5.6-0.9,7.5-2.6v3.2c-2.1,1.3-4.8,2-7.5,2c-8.1,0-13.8-5.6-13.8-13.8c0-8.2,6.1-13.8,13.8-13.8c2.7,0,5.2,0.7,7.3,2V308.5z"
		/>
	<path fill="#FFFFFF" d="M492.4,330.3h-2.8v-26.7c1.2-0.2,3.5-0.4,5.1-0.4c7.2,0,10.3,3.3,10.3,8.2c0,3.9-2.2,6.9-5.8,7.9l8.8,10.9
		h-3.4l-8.2-10.3h-4V330.3z M492.4,317.7h2.8c4.4,0,7-2.1,7-6.1c0-3.4-2.1-5.9-7.5-5.9c-0.5,0-1.6,0-2.2,0.1V317.7z"/>
	<path fill="#FFFFFF" d="M535.8,327.9v2.4h-15.3v-26.6h15.1v2.4h-12.4v9.4h11.6v2.4h-11.6v9.9H535.8z"/>
	<path fill="#FFFFFF" d="M553.4,322.9l-2.8,7.3h-2.9l10.3-26.6h3.5l10.4,26.6h-3l-2.8-7.3H553.4z M559.8,305.9l-5.6,14.7h11.2
		L559.8,305.9z"/>
	<path fill="#FFFFFF" d="M590.1,330.3h-2.8v-24.2h-8.8v-2.4h20.3v2.4h-8.8V330.3z"/>
	<path fill="#FFFFFF" d="M614.4,330.3h-2.8v-26.6h2.8V330.3z"/>
	<path fill="#FFFFFF" d="M637.2,330.3L627,303.7h3l9,23.8l9-23.8h2.9l-10.3,26.6H637.2z"/>
	<path fill="#FFFFFF" d="M678.8,327.9v2.4h-15.3v-26.6h15.1v2.4h-12.4v9.4h11.6v2.4h-11.6v9.9H678.8z"/>
</g>
<path fill="#FFFFFF" d="M227.2,335c-19.8,0.8-38-2.5-81.8-16.8c-7.8,22-22,43.5-21.8,43.5c67.1,10.2,114.3,0,114.3,0
	S231.9,352.5,227.2,335z"/>
</svg>
