<?xml version="1.0" encoding="utf-8"?>
<!-- Generator: Adobe Illustrator 18.1.1, SVG Export Plug-In . SVG Version: 6.00 Build 0)  -->
<svg version="1.1" id="rc-logo" xmlns="http://www.w3.org/2000/svg" xmlns:xlink="http://www.w3.org/1999/xlink" x="0px" y="0px"
	 viewBox="0 242 1811.2 595.9" enable-background="new 0 242 1811.2 595.9" xml:space="preserve">
<g>
	<path fill="#FFFFFF" d="M274.1,586.4c-3.7,1.9-8.9-0.9-11.7-6.4L100.9,255.9c-2.9-5.4-2.3-11.4,1.3-13.3l0,0
		c3.7-1.9,8.9,0.9,11.7,6.4l173.6,313.1c2.9,5.4-2.2,18.3-5.9,20.2L274.1,586.4z"/>
	<path fill="#FFFFFF" d="M261.4,547.2c-6.6,3.5-20,13.5-13.5,26.3c6.6,12.9,18.9,25.3,34.1,36.1c12,8.5,38.2,9.2,38.2,9.2
		s-10.7-3.9-17.6-19.2c-5.1-11.4-2.8-32.5-8.6-43.3C283.7,538,268.8,543.3,261.4,547.2z"/>
	<path class="svg-color-highlight" d="M262.7,575.8c-2.8,0.6-9.7,6.1-9.7,6.1c7,9.9,17.1,19.5,29,27.8c12,8.5,38.2,9.2,38.2,9.2
		s-10.7-3.9-17.6-19.2c-2.3-5.1-3.1-12.1-3.8-19.3C298.8,580.4,271.6,573.7,262.7,575.8z"/>
	<path fill="#FFFFFF" d="M364.2,660l-124,56c-5,2.2-25-42.3-20-44.5l124-56L364.2,660z"/>
	<path fill="#FFFFFF" d="M340.3,735c0-9.7-9.9-17.6-22.4-17.6H204.8c-12.3,0-22.4,7.9-22.4,17.6v3.7c0,9.7-6.4,17.6-6.4,17.6h164.4
		c12.3,0,0-7.9,0-17.6V735z"/>
	<path fill="#FFFFFF" d="M354.5,723c0,0-99.5,62-175.5-61.9c-69.5-113.1,39.2-184.3,39.2-184.3l10.5,16.8c0,0-81.9,60-30,144.9
		c60.5,99,144.1,60.5,144.1,60.5s6.6-0.9,11.8,9.5C359.8,718.9,354.5,723,354.5,723z"/>
	<g>
		<g>
			<path fill="#FFFFFF" d="M131.5,368.2C52.7,410.2,0,493.1,0,588.5C0,726,111.9,837.8,249.4,837.8s249.5-111.7,249.5-249.4
				S387,339.1,249.4,339.1c-35.4,0-66.8,5.9-97.3,19.2c4.2,8.5,6.6,13.2,11,21.6c27.2-11.7,54.8-16.5,86.4-16.5
				c124.2,0,225.1,101.1,225.1,225.1S373.5,813.6,249.5,813.6c-124.2,0-225.1-101.1-225.1-225.1c0-86.6,47.8-161.8,119.6-199.3"/>
		</g>
	</g>
	<path fill="#FFFFFF" d="M249.4,754.5c157.7,0,185.5-38.3,185.5-38.3s-67.3,109.7-185.5,109.7c-125.2,0-184.9-109.7-184.9-109.7
		S92.1,754.5,249.4,754.5z"/>
	<path fill="#FFFFFF" d="M275.5,582.5l-9.8,0.7c0,0,2.3,5.9,6.1,9.9c2.5,2.6,11.1,5.1,11.1,5.1s-5.6-4.4-6.9-7.9
		C275,587,275.5,582.5,275.5,582.5z"/>
</g>
<g enable-background="new    ">
	<path fill="#FFFFFF" d="M669,632.9h-35.9V489.3c11.4-1.9,30.6-3.2,45.7-3.2c36.9,0,61.7,15.5,61.7,50c0,20.6-11.7,35.2-26,42.8
		l38.6,53.9h-42.5l-31.1-46.2H669V632.9z M669,557.1h9c15.1,0,25.7-5.1,25.7-19.9c0-14.6-11.2-19.7-24.8-19.7c-2.9,0-8,0.2-10,0.5
		V557.1z"/>
	<path fill="#FFFFFF" d="M936.7,601.1v31.8h-97.2V488.6H935v31.8h-59.8v24.8h54.4v31.1h-54.4v24.8H936.7z"/>
	<path fill="#FFFFFF" d="M1067.2,605.4l-10,27.4h-38.1l56.1-144.3h43.5l56.1,144.3h-39.6l-9.7-27.4H1067.2z M1096.8,524.8
		l-18.7,51.3h36.9L1096.8,524.8z"/>
	<path fill="#FFFFFF" d="M1255.6,589.6c10.7,8,23.6,14.8,39.8,14.8c10.9,0,20.4-3.2,20.4-12.9c0-8.7-7.5-11.9-22.1-15.5
		c-29.9-7.5-41.1-21.1-41.1-45.2c0-28.4,21.6-44.7,50-44.7c17.2,0,29.1,4.1,39.8,10.4v35.5c-11.2-9.2-23.6-15.1-38.4-15.1
		c-10.9,0-16.3,4.9-16.3,11.7c0,9.2,8.3,12.1,23.6,16c29.6,7.8,39.8,21.6,39.8,45.7c0,31.3-25,44.9-55.6,44.9
		c-16,0-30.6-4.4-40.1-10.2V589.6z"/>
	<path fill="#FFFFFF" d="M1512.1,486.2c41.8,0,75.3,30.6,75.3,74.6s-33.5,74.6-75.3,74.6c-41.8,0-75.1-30.6-75.1-74.6
		S1470.4,486.2,1512.1,486.2z M1512.1,518.7c-21.9,0-37.9,16.8-37.9,42c0,25.3,16,42,37.9,42c22.1,0,37.9-16.8,37.9-42
		C1550,535.5,1534.3,518.7,1512.1,518.7z"/>
	<path fill="#FFFFFF" d="M1776.2,577v-88.4h35v144.3h-34.2l-60.2-86.7v86.7h-35V488.6h36.4L1776.2,577z"/>
</g>
<g enable-background="new    ">
	<path fill="#FFFFFF" d="M659.6,702.4c-2.6-2.2-5-2.9-7.9-2.9c-4.8,0-7.9,2.9-7.9,7.7c0,4.5,2.9,7.9,8.2,7.9c2.9,0,5.5-0.9,7.7-2.7
		v9.1c-2.7,1.8-5.8,2.3-9.1,2.3c-10.6,0-16.8-6.6-16.8-16.4c0-9.8,6.8-16.6,16.8-16.6c3.7,0,6.3,0.7,9,2.3V702.4z"/>
	<path fill="#FFFFFF" d="M682.3,723.1h-10v-29.3c3.5-1.8,8.3-2.8,12.9-2.8c2.7,0,4.5,0.2,7,0.9v9.6c-2.1-0.9-4.4-1.2-6.6-1.2
		c-1.1,0-2.2,0.1-3.4,0.4V723.1z"/>
	<path fill="#FFFFFF" d="M710.6,710.4v0.1c0.8,3.4,4.8,4.8,8.5,4.8c4.1,0,7.4-0.9,10.5-2.5v8.2c-2.9,2-7.3,2.8-11.6,2.8
		c-10.7,0-17-6.3-17-16c0-10.7,6.6-17,15.6-17c10.5,0,13.8,7.1,13.8,15.3v4.3H710.6z M721.3,704.8c0-3-1.3-5.8-4.9-5.8
		c-3.2,0-5.1,2.4-5.7,5.8H721.3z"/>
	<path fill="#FFFFFF" d="M758.4,703c0-2.7-2.5-3.7-5.3-3.7c-3.7,0-6.7,1.1-9.1,2.6v-8.4c2.9-1.7,6.7-2.6,10.9-2.6
		c7.6,0,13.3,2.9,13.3,11.7v19.9c-3.1,0.7-8.4,1.4-12.9,1.4c-7.8,0-14.1-2.3-14.1-9.9c0-6.7,5.2-9.7,13.8-9.7h3.4V703z M758.4,710.3
		h-2.7c-3.1,0-4.6,1-4.6,3.2s1.5,3.2,4.1,3.2c0.8,0,2.2-0.1,3.2-0.3V710.3z"/>
	<path fill="#FFFFFF" d="M777.7,691.6h4.7v-7.8h9.9v7.8h9.1v8.3h-9.1v10.4c0,3.5,1.8,4.4,4.1,4.4c2.2,0,4.1-0.6,5.8-1.8v9.1
		c-2.4,1.3-5.3,1.8-8.6,1.8c-5.8,0-11.2-2.7-11.2-10.7v-13.3h-4.7V691.6z"/>
	<path fill="#FFFFFF" d="M813.3,682.1c0-3.2,2.6-5.8,5.8-5.8c3,0,5.7,2.5,5.7,5.8c0,3.2-2.7,5.7-5.7,5.7
		C815.9,687.8,813.3,685.2,813.3,682.1z M824,723.1h-10v-31.6h10V723.1z"/>
	<path fill="#FFFFFF" d="M846.2,723.1l-12.1-31.6h10.8l7.3,21.7l7.3-21.7H870l-12.1,31.6H846.2z"/>
	<path fill="#FFFFFF" d="M887,710.4v0.1c0.8,3.4,4.8,4.8,8.5,4.8c4.1,0,7.4-0.9,10.5-2.5v8.2c-2.9,2-7.3,2.8-11.6,2.8
		c-10.7,0-17-6.3-17-16c0-10.7,6.6-17,15.6-17c10.5,0,13.8,7.1,13.8,15.3v4.3H887z M897.7,704.8c0-3-1.3-5.8-4.9-5.8
		c-3.2,0-5.1,2.4-5.7,5.8H897.7z"/>
</g>
</svg>
