<?xml version="1.0" encoding="utf-8"?>
<!-- Generator: Adobe Illustrator 18.1.1, SVG Export Plug-In . SVG Version: 6.00 Build 0)  -->
<svg version="1.1" id="Layer_1" xmlns="http://www.w3.org/2000/svg" xmlns:xlink="http://www.w3.org/1999/xlink" x="0px" y="0px"
	 viewBox="0 0 1900 1080" enable-background="new 0 0 1900 1080" xml:space="preserve">
<rect x="-130.7" y="-1830.1" transform="matrix(0.9063 0.4227 -0.4227 0.9063 82.2357 -475.0634)" class="svg-color-2" width="2486.2" height="3556.1"/>
<polygon class="svg-color-1" points="2661.7,-404.8 2285.9,401 2145.1,335.4 2708.9,-873.4 2568.1,-939.1 2192.2,-133.2 1910.7,-264.5 
	1535.2,540.6 1394.4,475 1957.9,-733.1 1817.1,-798.7 1441.2,7.1 1159.7,-124.2 1535.5,-930 1394,-996 830.6,212.1 689.8,146.4 
	1065.3,-658.7 783.8,-790 1159.6,-1595.9 1018.9,-1661.6 455.1,-452.7 314.3,-518.4 690.2,-1324.3 549.4,-1389.9 -201.9,221.1 
	-61.2,286.7 -437,1092.6 -296.2,1158.3 267.5,-50.5 408.3,15.1 32.5,821 314,952.3 -61.8,1758.2 78.9,1823.8 642.7,615 784.2,681 
	408.4,1486.9 689.9,1618.2 1065.8,812.3 1206.5,877.9 642.8,2086.8 783.5,2152.4 1159.4,1346.5 1440.9,1477.8 1816.8,671.9 
	1957.5,737.6 1393.8,1946.4 1534.5,2012.1 1910.4,1206.2 2051.2,1271.8 2802.5,-339.2 "/>
<rect x="816" y="485.5" transform="matrix(0.7595 0.6506 -0.6506 0.7595 768.4124 -1093.2375)" class="svg-color-3" width="2093.2" height="14"/>
<rect x="-192" y="552.5" transform="matrix(0.7595 0.6506 -0.6506 0.7595 569.5341 -421.3614)" class="svg-color-3" width="2093.2" height="14"/>
<rect x="-891" y="208.5" transform="matrix(0.7595 0.6506 -0.6506 0.7595 177.6045 -49.3694)" class="svg-color-3" width="2093.2" height="14"/>
<rect x="21" y="1302.5" transform="matrix(0.7595 0.6506 -0.6506 0.7595 1108.6859 -379.5238)" class="svg-color-3" width="2093.2" height="14"/>
<rect x="-987" y="-59.5" transform="matrix(0.7595 0.6506 -0.6506 0.7595 -19.8363 -51.3811)" class="svg-color-3" width="2093.2" height="14"/>
<rect x="287" y="68.5" transform="matrix(0.7595 0.6506 -0.6506 0.7595 369.8842 -849.3993)" class="svg-color-3" width="2093.2" height="14"/>
<rect x="-1191" y="706.5" transform="matrix(0.7595 0.6506 -0.6506 0.7595 429.4189 265.5868)" class="svg-color-3" width="2093.2" height="14"/>
<rect x="1184" y="1073.5" transform="matrix(0.7595 0.6506 -0.6506 0.7595 1239.4581 -1191.2037)" class="svg-color-3" width="2093.2" height="14"/>
<rect x="-574" y="-115.5" transform="matrix(0.7595 0.6506 -0.6506 0.7595 43.0761 -333.5307)" class="svg-color-3" width="2093.2" height="14"/>
</svg>
