<?xml version="1.0" encoding="utf-8"?>
<!-- Generator: Adobe Illustrator 18.1.1, SVG Export Plug-In . SVG Version: 6.00 Build 0)  -->
<svg version="1.1" id="Layer_1" xmlns="http://www.w3.org/2000/svg" xmlns:xlink="http://www.w3.org/1999/xlink" x="0px" y="0px"
	 viewBox="0 0 1900 1080" enable-background="new 0 0 1900 1080" xml:space="preserve">
<path class="svg-color-1" d="M1652.5,255c-89.2,0-174.7,15.9-253.8,45c-7.3-190.1-163.8-342-355.7-342c-196.6,0-356,159.4-356,356
	c0,179.5,132.9,328,305.7,352.5C944.9,764,918,873.6,918,989.5c0,405.7,328.8,734.5,734.5,734.5S2387,1395.2,2387,989.5
	S2058.2,255,1652.5,255z"/>
<path class="svg-color-3" d="M969.3,635.8c-15.9,0-31,3.7-44.4,10.2c63.7-96.2,100.7-211.5,100.7-335.4c0-336-272.4-608.4-608.4-608.4
	S-191.2-25.4-191.2,310.6S81.2,919,417.2,919c179.6,0,341-77.8,452.4-201.6c-1.3,6.5-2,13.2-2,20.1c0,56.2,45.5,101.7,101.7,101.7
	c56.2,0,101.7-45.5,101.7-101.7S1025.5,635.8,969.3,635.8z"/>
<circle class="svg-color-2" cx="1582" cy="129" r="427.2"/>
<circle class="svg-color-3" cx="1564.6" cy="700.5" r="80.3"/>
<circle class="svg-color-2" cx="476" cy="916" r="506"/>
</svg>
