<?xml version="1.0" encoding="utf-8"?>
<!-- Generator: Adobe Illustrator 18.1.1, SVG Export Plug-In . SVG Version: 6.00 Build 0)  -->
<svg version="1.1" id="Layer_1" xmlns="http://www.w3.org/2000/svg" xmlns:xlink="http://www.w3.org/1999/xlink" x="0px" y="0px"
	 viewBox="0 0 1900 1080" enable-background="new 0 0 1900 1080" xml:space="preserve">
<rect x="-130.7" y="-1830.1" transform="matrix(0.9063 0.4227 -0.4227 0.9063 82.2357 -475.0634)" class="svg-color-2" width="2486.2" height="3556.1"/>
<polygon class="svg-color-1" points="2661.7,-404.8 2285.9,401 2145.1,335.4 2708.9,-873.4 2568.1,-939.1 2192.2,-133.2 1910.7,-264.5 
	1453.2,713.6 1312.4,648 1957.9,-733.1 1817.1,-798.7 1441.2,7.1 1159.7,-124.2 1535.5,-930 1394,-996 830.6,212.1 689.8,146.4 
	1065.3,-658.7 783.8,-790 1159.6,-1595.9 1018.9,-1661.6 455.1,-452.7 314.3,-518.4 690.2,-1324.3 549.4,-1389.9 -201.9,221.1 
	-61.2,286.7 -437,1092.6 -296.2,1158.3 267.5,-50.5 408.3,15.1 32.5,821 314,952.3 -61.8,1758.2 78.9,1823.8 737.7,413 879.2,479 
	408.4,1486.9 689.9,1618.2 1065.8,812.3 1206.5,877.9 642.8,2086.8 783.5,2152.4 1159.4,1346.5 1440.9,1477.8 1816.8,671.9 
	1957.5,737.6 1393.8,1946.4 1534.5,2012.1 1910.4,1206.2 2051.2,1271.8 2802.5,-339.2 "/>
<line fill="none" class="svg-stroke-3" stroke-miterlimit="10" x1="2662" y1="1139" x2="1087" y2="-217"/>
<line fill="none" class="svg-stroke-3" stroke-miterlimit="10" x1="951" y1="896" x2="-624" y2="-460"/>
<line fill="none" class="svg-stroke-3" stroke-miterlimit="10" x1="674" y1="1419" x2="-901" y2="63"/>
<line fill="none" class="svg-stroke-3" stroke-miterlimit="10" x1="1843" y1="1987" x2="268" y2="631"/>
<line fill="none" class="svg-stroke-3" stroke-miterlimit="10" x1="2128" y1="758" x2="553" y2="-598"/>
<line fill="none" class="svg-stroke-3" stroke-miterlimit="10" x1="3006" y1="1758" x2="1431" y2="402"/>
<line fill="none" class="svg-stroke-3" stroke-miterlimit="10" x1="1635" y1="1237" x2="60" y2="-119"/>
<line fill="none" class="svg-stroke-3" stroke-miterlimit="10" x1="1260" y1="578" x2="-315" y2="-778"/>
<line fill="none" class="svg-stroke-3" stroke-miterlimit="10" x1="859" y1="634" x2="-716" y2="-722"/>
<line fill="none" class="svg-stroke-3" stroke-miterlimit="10" x1="2643" y1="1170" x2="1068" y2="-186"/>
</svg>
