<?xml version="1.0" encoding="utf-8"?>
<!-- Generator: Adobe Illustrator 19.1.0, SVG Export Plug-In . SVG Version: 6.00 Build 0)  -->
<svg version="1.1" id="Layer_1" xmlns="http://www.w3.org/2000/svg" xmlns:xlink="http://www.w3.org/1999/xlink" x="0px" y="0px"
	 viewBox="0 0 1383.4 519.1" enable-background="new 0 0 1383.4 519.1" xml:space="preserve">
<g>
	<path fill="#FFFFFF" class="main-color" d="M271.5,268.8c-2.5,1.3-6.1-0.6-8-4.4L153.1,42.7c-2-3.7-1.6-7.8,0.9-9.1l0,0c2.5-1.3,6.1,0.6,8,4.4
		L280.7,252c2,3.7-1.5,12.5-4,13.8L271.5,268.8z"/>
	<path fill="#FFFFFF" class="main-color" d="M262.8,241.9c-4.5,2.4-13.7,9.2-9.2,18c4.5,8.8,12.9,17.3,23.3,24.7c8.2,5.8,26.1,6.3,26.1,6.3
		s-7.3-2.7-12-13.1c-3.5-7.8-1.9-22.2-5.9-29.6C278.1,235.6,267.9,239.2,262.8,241.9z"/>
	<path fill="#00AEEF" d="M263.7,261.4c-1.9,0.4-6.6,4.2-6.6,4.2c4.8,6.8,11.7,13.3,19.8,19c8.2,5.8,26.1,6.3,26.1,6.3
		s-7.3-2.7-12-13.1c-1.6-3.5-2.1-8.3-2.6-13.2C288.4,264.6,269.8,260,263.7,261.4z"/>
	<path fill="#FFFFFF" class="main-color" d="M330.4,317.2l-82.4,37c-3.4,1.5-14.8-23.8-11.4-25.3l84.8-38.3L330.4,317.2z"/>
	<path fill="#FFFFFF" class="main-color" d="M328.6,361.5c0,0-74.2,35.8-122.2-41.7c-47.7-77.1,28.3-125.9,28.3-125.9l4,13.3c0,0-53.7,43.3-18.8,97.1
		c43.2,66.6,103.3,41,103.3,41L328.6,361.5z"/>
	<g>
		<g>
			<path fill="#FFFFFF" class="main-color" d="M174,119.5c-53.9,28.6-89.9,85.4-89.9,150.6c0,94,76.5,170.5,170.5,170.5s170.5-76.5,170.5-170.5
				S348.7,99.6,254.6,99.6c-24.2,0-45.7,4-66.5,13.1c2.9,5.8,4.5,9,7.5,14.8c18.6-8,37.5-11.3,59.1-11.3
				c84.9,0,153.9,69.1,153.9,153.9s-69.1,153.9-153.9,153.9c-84.9,0-153.9-69.1-153.9-153.9c0-59.2,32.7-110.6,81.8-136.3"/>
		</g>
	</g>
	<path fill="#FFFFFF" class="main-color" d="M254.6,384.6c107.8,0,126.8-26.2,126.8-26.2s-46,75-126.8,75c-85.6,0-126.6-74.8-126.6-74.8
		S147.1,384.6,254.6,384.6z"/>
	<path fill="#FFFFFF" class="main-color" d="M272.5,266l-6.7,0.5c0,0,1.6,4,4.2,6.8c1.7,1.8,7.6,3.5,7.6,3.5s-3.8-3-4.7-5.4
		C272.1,269.1,272.5,266,272.5,266z"/>
</g>
<g>
	<path fill="#FFFFFF" class="main-color" d="M560,302.8h-24.6v-98.2c7.8-1.3,20.9-2.2,31.2-2.2c25.2,0,42.2,10.6,42.2,34.2c0,14.1-8,24.1-17.8,29.2
		l26.4,36.9h-29.1l-21.3-31.6H560V302.8z M560,251h6.1c10.3,0,17.6-3.5,17.6-13.6c0-10-7.6-13.5-16.9-13.5c-2,0-5.5,0.2-6.8,0.3V251
		z"/>
	<path fill="#FFFFFF" class="main-color" d="M742.2,281v21.8h-66.4v-98.6H741v21.8h-40.9v16.9h37.2v21.3h-37.2V281H742.2z"/>
	<path fill="#FFFFFF" class="main-color" d="M824.9,284l-6.8,18.8H792l38.4-98.6h29.7l38.4,98.6h-27.1l-6.6-18.8H824.9z M845.1,228.9l-12.8,35h25.2
		L845.1,228.9z"/>
	<path fill="#FFFFFF" class="main-color" d="M947.3,273.2c7.3,5.5,16.1,10.1,27.2,10.1c7.5,0,14-2.2,14-8.8c0-6-5.1-8.1-15.1-10.6
		c-20.4-5.1-28.1-14.4-28.1-30.9c0-19.4,14.8-30.6,34.2-30.6c11.8,0,19.9,2.8,27.2,7.1v24.2c-7.6-6.3-16.1-10.3-26.2-10.3
		c-7.5,0-11.1,3.3-11.1,8c0,6.3,5.6,8.3,16.1,11c20.3,5.3,27.2,14.8,27.2,31.2c0,21.4-17.1,30.7-38,30.7c-11,0-20.9-3-27.4-7V273.2z
		"/>
	<path fill="#FFFFFF" class="main-color" d="M1114.9,202.5c28.6,0,51.5,20.9,51.5,51c0,30.1-22.9,51-51.5,51c-28.6,0-51.3-20.9-51.3-51
		C1063.5,223.4,1086.3,202.5,1114.9,202.5z M1114.9,224.7c-14.9,0-25.9,11.5-25.9,28.7s11,28.7,25.9,28.7
		c15.1,0,25.9-11.5,25.9-28.7S1130,224.7,1114.9,224.7z"/>
	<path fill="#FFFFFF" class="main-color" d="M1284.6,264.6v-60.5h23.9v98.6h-23.4l-41.2-59.3v59.3H1220v-98.6h24.9L1284.6,264.6z"/>
</g>
<g>
	<path fill="#FFFFFF" class="main-color" d="M554,331.7c-1.9-1.8-4.6-2.7-7.4-2.7c-6,0-10.9,4.4-10.9,11.2c0,6.9,4.9,11.2,10.9,11.2
		c2.8,0,5.6-0.9,7.5-2.6v3.2c-2.1,1.3-4.8,2-7.5,2c-8.1,0-13.8-5.6-13.8-13.8c0-8.2,6.1-13.8,13.8-13.8c2.7,0,5.2,0.7,7.3,2V331.7z"
		/>
	<path fill="#FFFFFF" class="main-color" d="M570.9,353.5h-2.8v-26.7c1.2-0.2,3.5-0.4,5.1-0.4c7.2,0,10.3,3.3,10.3,8.2c0,3.9-2.2,6.9-5.8,7.9l8.8,10.9
		h-3.4l-8.2-10.3h-4V353.5z M570.9,340.9h2.8c4.4,0,7-2.1,7-6.1c0-3.4-2.1-5.9-7.5-5.9c-0.5,0-1.6,0-2.2,0.1V340.9z"/>
	<path fill="#FFFFFF" class="main-color" d="M614.3,351.1v2.4H599v-26.6h15.1v2.4h-12.4v9.4h11.6v2.4h-11.6v9.9H614.3z"/>
	<path fill="#FFFFFF" class="main-color" d="M631.8,346.2l-2.8,7.3h-2.9l10.3-26.6h3.5l10.4,26.6h-3l-2.8-7.3H631.8z M638.3,329.1l-5.6,14.7h11.2
		L638.3,329.1z"/>
	<path fill="#FFFFFF" class="main-color" d="M668.5,353.5h-2.8v-24.2H657v-2.4h20.3v2.4h-8.8V353.5z"/>
	<path fill="#FFFFFF" class="main-color" d="M692.9,353.5h-2.8v-26.6h2.8V353.5z"/>
	<path fill="#FFFFFF" class="main-color" d="M715.7,353.5l-10.3-26.6h3l9,23.8l9-23.8h2.9L719,353.5H715.7z"/>
	<path fill="#FFFFFF" class="main-color" d="M757.2,351.1v2.4h-15.3v-26.6h15.1v2.4h-12.4v9.4h11.6v2.4h-11.6v9.9H757.2z"/>
</g>
<path fill="#FFFFFF" class="main-color" d="M305.6,358.2c-19.8,0.8-38-2.5-81.8-16.8c-7.8,22-21.8,43.5-21.8,43.5h114.3
	C316.4,385,310.4,375.7,305.6,358.2z"/>
</svg>
