<?xml version="1.0" encoding="utf-8"?>
<!-- Generator: Adobe Illustrator 19.1.0, SVG Export Plug-In . SVG Version: 6.00 Build 0)  -->
<svg version="1.1" id="Layer_1" xmlns="http://www.w3.org/2000/svg" xmlns:xlink="http://www.w3.org/1999/xlink" x="0px" y="0px"
	 viewBox="0 0 787.5 162" enable-background="new 0 0 787.5 162" xml:space="preserve">
<g>
	<path fill="#FFFFFF" d="M33.1,105.6H8.5V7.4c7.8-1.3,20.9-2.2,31.2-2.2c25.2,0,42.2,10.6,42.2,34.2c0,14.1-8,24.1-17.8,29.2
		l26.4,36.9H61.5L40.3,74h-7.1V105.6z M33.1,53.8h6.1c10.3,0,17.6-3.5,17.6-13.6c0-10-7.6-13.5-16.9-13.5c-2,0-5.5,0.2-6.8,0.3V53.8
		z"/>
	<path fill="#FFFFFF" d="M215.2,83.8v21.8h-66.4V6.9h65.3v21.8h-40.9v16.9h37.2v21.3h-37.2v16.9H215.2z"/>
	<path fill="#FFFFFF" d="M297.9,86.8l-6.8,18.8h-26.1l38.4-98.6h29.7l38.4,98.6h-27.1l-6.6-18.8H297.9z M318.2,31.7l-12.8,35h25.2
		L318.2,31.7z"/>
	<path fill="#FFFFFF" d="M420.3,76c7.3,5.5,16.1,10.1,27.2,10.1c7.5,0,14-2.2,14-8.8c0-6-5.1-8.1-15.1-10.6
		c-20.4-5.1-28.1-14.4-28.1-30.9c0-19.4,14.8-30.6,34.2-30.6c11.8,0,19.9,2.8,27.2,7.1v24.2c-7.6-6.3-16.1-10.3-26.2-10.3
		c-7.5,0-11.1,3.3-11.1,8c0,6.3,5.6,8.3,16.1,11c20.3,5.3,27.2,14.8,27.2,31.2c0,21.4-17.1,30.7-38,30.7c-11,0-20.9-3-27.4-7V76z"/>
	<path fill="#FFFFFF" d="M587.9,5.3c28.6,0,51.5,20.9,51.5,51c0,30.1-22.9,51-51.5,51c-28.6,0-51.3-20.9-51.3-51
		C536.6,26.2,559.4,5.3,587.9,5.3z M587.9,27.5C573,27.5,562,39,562,56.2S573,85,587.9,85c15.1,0,25.9-11.5,25.9-28.7
		S603,27.5,587.9,27.5z"/>
	<path fill="#FFFFFF" d="M757.7,67.4V6.9h23.9v98.6h-23.4L717,46.3v59.3H693V6.9H718L757.7,67.4z"/>
</g>
<g>
	<path fill="#FFFFFF" d="M27.1,134.5c-1.9-1.8-4.6-2.7-7.4-2.7c-6,0-10.9,4.4-10.9,11.2c0,6.9,4.9,11.2,10.9,11.2
		c2.8,0,5.6-0.9,7.5-2.6v3.2c-2.1,1.3-4.8,2-7.5,2C11.7,156.7,6,151.1,6,143c0-8.2,6.1-13.8,13.8-13.8c2.7,0,5.2,0.7,7.3,2V134.5z"
		/>
	<path fill="#FFFFFF" d="M43.9,156.3h-2.8v-26.7c1.2-0.2,3.5-0.4,5.1-0.4c7.2,0,10.3,3.3,10.3,8.2c0,3.9-2.2,6.9-5.8,7.9l8.8,10.9
		h-3.4L47.9,146h-4V156.3z M43.9,143.7h2.8c4.4,0,7-2.1,7-6.1c0-3.4-2.1-5.9-7.5-5.9c-0.5,0-1.6,0-2.2,0.1V143.7z"/>
	<path fill="#FFFFFF" d="M87.4,153.9v2.4H72v-26.6h15.1v2.4H74.8v9.4h11.6v2.4H74.8v9.9H87.4z"/>
	<path fill="#FFFFFF" d="M104.9,148.9l-2.8,7.3h-2.9l10.3-26.6h3.5l10.4,26.6h-3l-2.8-7.3H104.9z M111.3,131.9l-5.6,14.7h11.2
		L111.3,131.9z"/>
	<path fill="#FFFFFF" d="M141.6,156.3h-2.8v-24.2h-8.8v-2.4h20.3v2.4h-8.8V156.3z"/>
	<path fill="#FFFFFF" d="M165.9,156.3h-2.8v-26.6h2.8V156.3z"/>
	<path fill="#FFFFFF" d="M188.8,156.3l-10.3-26.6h3l9,23.8l9-23.8h2.9l-10.3,26.6H188.8z"/>
	<path fill="#FFFFFF" d="M230.3,153.9v2.4H215v-26.6h15.1v2.4h-12.4v9.4h11.6v2.4h-11.6v9.9H230.3z"/>
</g>
</svg>
